<svg xmlns="http://www.w3.org/2000/svg" width="21" height="21" viewBox="0 0 18 21">
    <g fill="none" fill-rule="evenodd" stroke-linejoin="round">
        <g stroke="#999" stroke-width="1.5">
            <g>
                <path d="M56.197 16.388l7 5.232c.506.377.803.971.803 1.602V34c0 .552-.448 1-1 1h-6v-5.803c0-1.104-.895-2-2-2-1.054 0-1.918.816-1.995 1.851l-.005.15V35h-6c-.552 0-1-.448-1-1V23.222c0-.631.297-1.225.803-1.602l7-5.232c.71-.53 1.684-.53 2.394 0z" transform="translate(-45 -604) translate(0 589)"/>
            </g>
        </g>
    </g>
</svg>
